<svg xmlns="http://www.w3.org/2000/svg" width="300" height="51" viewBox="0 0 300 51">
  <defs>
    <style>
      .cls-1 {
        fill: #fed136;
        fill-rule: evenodd;
      }
    </style>
  </defs>
  <path id="Vinicius_Martins_" data-name="Vinicius Martins " class="cls-1" d="M11.24,36.308q1.06-3.044,2.56-6.549t3.367-7.171q1.868-3.666,3.851-6.779a42.356,42.356,0,0,1,3.943-5.326,9.47,9.47,0,0,1,3.666-2.813,4.693,4.693,0,0,0-.646-1.015,6.566,6.566,0,0,0-.922-0.922,6.348,6.348,0,0,0-1.084-.715,3.909,3.909,0,0,0-1.084-.392A3.682,3.682,0,0,0,23,6.078a32.219,32.219,0,0,0-2.606,3.689q-1.453,2.329-3.067,5.465t-3.251,6.756q-1.638,3.621-3.182,7.54t-2.836,7.84q-0.185-1.107-.323-2.237T7.527,32.688q-0.069-1.314-.115-2.951T7.366,26.024q0-2.767.092-5.58t0.3-5.35q0.208-2.536.553-4.612a20.113,20.113,0,0,1,.807-3.367A2.036,2.036,0,0,0,8.1,6.309a21.223,21.223,0,0,0-2.1-.945Q4.829,4.9,3.63,4.556a7.209,7.209,0,0,0-1.8-.346q0,3.505-.046,6.479T1.67,16.27Q1.6,18.876,1.555,21.182T1.509,25.563q0,1.568.046,3.113T1.74,31.9q0.138,1.684.369,3.574t0.6,4.151a4.969,4.969,0,0,0,2.006,1.337A11.171,11.171,0,0,0,7.55,41.7a4.817,4.817,0,0,0,2.26-.553A40.113,40.113,0,0,1,11.24,36.308Zm11.529,0.553a5.1,5.1,0,0,0,1.038,1.222,4.441,4.441,0,0,0,1.13.715,2.538,2.538,0,0,0,.738.231q0.23,0,.254-0.346t0.023-1.176a9.832,9.832,0,0,1,.461-2.375q0.415-1.36.922-2.652,0.6-1.522,1.084-2.905T29.479,26.9a23.768,23.768,0,0,1,1.291-2.49,16.016,16.016,0,0,1,1.776-2.4,7.013,7.013,0,0,0-2.214-2.1,8.135,8.135,0,0,0-2.075-.945,4.772,4.772,0,0,0-1.822,1.568,13.853,13.853,0,0,0-1.291,2.191,17.661,17.661,0,0,0-.853,2.144q-0.323,1.015-.415,1.476-0.461,2.075-.761,3.551T22.63,32.411q-0.185,1.038-.254,1.66a9.7,9.7,0,0,0-.069,1.038A3.235,3.235,0,0,0,22.769,36.862Zm8.762-21.006a1.814,1.814,0,0,0,.968.484,10.316,10.316,0,0,1,.83-1.245q0.645-.876,1.43-1.868t1.614-1.891q0.83-.9,1.337-1.407A6.319,6.319,0,0,0,36.65,8.845a11.156,11.156,0,0,0-1.522-1.061A10.61,10.61,0,0,0,33.491,7a4.061,4.061,0,0,0-1.361-.3q-0.277.738-.553,1.637t-0.461,1.729q-0.185.83-.3,1.545a7.5,7.5,0,0,0-.115,1.13,2.525,2.525,0,0,0,.161.83,1.808,1.808,0,0,0,.392.692,3.786,3.786,0,0,0-.138.83A1.09,1.09,0,0,0,31.531,15.855Zm7.263,2.467a48.162,48.162,0,0,0-3.205,6.364q-0.785,1.8-1.43,3.6T33.076,31.72q-0.439,1.637-.692,2.975a12.31,12.31,0,0,0-.254,2.214,9.743,9.743,0,0,0,.692,2.052,3.389,3.389,0,0,0,1.43,1.545,5.2,5.2,0,0,0,1.314-1.314q0.761-.992,1.776-2.421,1.8-2.49,3.528-4.52a55.933,55.933,0,0,1,3.9-4.1,11.853,11.853,0,0,1,2.49-1.983,9.318,9.318,0,0,1,1.245-.646q-0.785,1.845-1.291,3.159t-0.784,2.26a11.236,11.236,0,0,0-.369,1.637,9.335,9.335,0,0,0,.092,3.159,3.805,3.805,0,0,0,.669,1.545,3.394,3.394,0,0,0,1.337,1.038,5.276,5.276,0,0,0,2.191.392,2.935,2.935,0,0,0,.945-0.184,9.245,9.245,0,0,0,1.084-.461,11.843,11.843,0,0,0,1.061-.6,7.184,7.184,0,0,0,.876-0.646,1.518,1.518,0,0,0-.115-0.53,0.691,0.691,0,0,0-.3-0.392,2.462,2.462,0,0,0-.876.231,2.748,2.748,0,0,1-1.061.23,1.105,1.105,0,0,1-.853-0.323,2.375,2.375,0,0,1-.3-1.476,11.532,11.532,0,0,1,.507-3.182,25.655,25.655,0,0,1,1.268-3.436q0.761-1.683,1.568-3.136A18.163,18.163,0,0,1,55.6,22.519a3.812,3.812,0,0,1,.992-0.9,0.554,0.554,0,0,0,.346-0.254,7.049,7.049,0,0,0-1.268-1.683,2.726,2.726,0,0,0-2.006-.807,5.024,5.024,0,0,0-2.444.761,18.787,18.787,0,0,0-2.652,1.845,32.461,32.461,0,0,0-2.513,2.306q-1.2,1.223-2.075,2.145-0.415.415-1.153,1.268t-1.591,1.891q-0.854,1.038-1.752,2.075t-1.637,1.822a8.64,8.64,0,0,1,.992-2.7q0.853-1.636,1.914-3.459t2.121-3.574a22.282,22.282,0,0,0,1.568-3,8.536,8.536,0,0,0-1.568-2.79,4.894,4.894,0,0,0-2.26-1.637A10.833,10.833,0,0,0,38.794,18.322ZM58.555,36.862a5.1,5.1,0,0,0,1.038,1.222,4.443,4.443,0,0,0,1.13.715,2.538,2.538,0,0,0,.738.231q0.23,0,.254-0.346t0.023-1.176a9.832,9.832,0,0,1,.461-2.375q0.415-1.36.922-2.652,0.6-1.522,1.084-2.905T65.265,26.9a23.767,23.767,0,0,1,1.291-2.49,16.01,16.01,0,0,1,1.776-2.4,7.012,7.012,0,0,0-2.214-2.1,8.134,8.134,0,0,0-2.075-.945,4.772,4.772,0,0,0-1.822,1.568,13.854,13.854,0,0,0-1.291,2.191,17.659,17.659,0,0,0-.853,2.144q-0.323,1.015-.415,1.476Q59.2,28.422,58.9,29.9t-0.484,2.513q-0.185,1.038-.254,1.66a9.706,9.706,0,0,0-.069,1.038A3.235,3.235,0,0,0,58.555,36.862Zm8.762-21.006a1.814,1.814,0,0,0,.968.484,10.316,10.316,0,0,1,.83-1.245q0.645-.876,1.43-1.868t1.614-1.891q0.83-.9,1.337-1.407a6.323,6.323,0,0,0-1.061-1.084,11.156,11.156,0,0,0-1.522-1.061A10.61,10.61,0,0,0,69.277,7a4.061,4.061,0,0,0-1.361-.3q-0.277.738-.553,1.637T66.9,10.067q-0.185.83-.3,1.545a7.5,7.5,0,0,0-.115,1.13,2.525,2.525,0,0,0,.161.83,1.807,1.807,0,0,0,.392.692,3.78,3.78,0,0,0-.138.83A1.09,1.09,0,0,0,67.317,15.855Zm2.467,17.686a10.39,10.39,0,0,0,1.568,2.952,8.359,8.359,0,0,0,2.329,2.1,6.636,6.636,0,0,0,2.859.945,6.7,6.7,0,0,0,1.822-.669,19.386,19.386,0,0,0,2.144-1.291,19.931,19.931,0,0,0,2.121-1.683A17.211,17.211,0,0,0,84.426,34a1.34,1.34,0,0,0-.461-0.922q-1.061.785-2.19,1.476t-2.191,1.222a17.042,17.042,0,0,1-1.983.853,8.3,8.3,0,0,1-1.614.415q-1.66-.737-1.66-4.473a15.6,15.6,0,0,1,1.038-5.649,15.824,15.824,0,0,1,3.021-4.911,13.058,13.058,0,0,1,2.675-2.306,4.627,4.627,0,0,1,2.306-.876q1.06,0,1.061,1.337,0,2.307-3.09,5.119a2.932,2.932,0,0,0,.945.9,2.189,2.189,0,0,0,1.13.346,2.148,2.148,0,0,0,1.291-.484,4.539,4.539,0,0,0,1.13-1.268A7.492,7.492,0,0,0,86.617,23a7.057,7.057,0,0,0,.3-2.052,4.429,4.429,0,0,0-1.291-3.413,5.227,5.227,0,0,0-3.689-1.2,10.2,10.2,0,0,0-4.727,1.176,14.659,14.659,0,0,0-4.058,3.09,15.625,15.625,0,0,0-2.859,4.381,12.542,12.542,0,0,0-1.084,5.1A10.457,10.457,0,0,0,69.784,33.541Zm19.023,3.32a5.094,5.094,0,0,0,1.038,1.222,4.442,4.442,0,0,0,1.13.715,2.537,2.537,0,0,0,.738.231q0.23,0,.254-0.346t0.023-1.176a9.832,9.832,0,0,1,.461-2.375q0.415-1.36.922-2.652,0.6-1.522,1.084-2.905T95.518,26.9a23.787,23.787,0,0,1,1.291-2.49,16.016,16.016,0,0,1,1.775-2.4,7.012,7.012,0,0,0-2.214-2.1,8.135,8.135,0,0,0-2.075-.945,4.772,4.772,0,0,0-1.822,1.568,13.854,13.854,0,0,0-1.291,2.191,17.677,17.677,0,0,0-.853,2.144q-0.323,1.015-.415,1.476-0.462,2.075-.761,3.551t-0.484,2.513q-0.185,1.038-.254,1.66a9.679,9.679,0,0,0-.069,1.038A3.235,3.235,0,0,0,88.808,36.862ZM97.57,15.855a1.814,1.814,0,0,0,.969.484,10.316,10.316,0,0,1,.83-1.245q0.645-.876,1.43-1.868t1.614-1.891q0.829-.9,1.337-1.407a6.3,6.3,0,0,0-1.06-1.084,11.17,11.17,0,0,0-1.522-1.061A10.647,10.647,0,0,0,99.53,7a4.061,4.061,0,0,0-1.361-.3q-0.277.738-.553,1.637t-0.461,1.729q-0.185.83-.3,1.545a7.5,7.5,0,0,0-.115,1.13,2.525,2.525,0,0,0,.161.83,1.808,1.808,0,0,0,.392.692,3.785,3.785,0,0,0-.138.83A1.09,1.09,0,0,0,97.57,15.855ZM112.9,37.876q0.622,0.323,1.246.576a10.139,10.139,0,0,0,1.129.392,3.3,3.3,0,0,0,.83.138,0.136,0.136,0,0,0,.093-0.046,0.264,0.264,0,0,0,.092-0.138,1.29,1.29,0,0,0-.161-0.553,8.324,8.324,0,0,1-.346-0.807,8.731,8.731,0,0,1-.346-1.2,7.691,7.691,0,0,1-.162-1.683,12.165,12.165,0,0,1,.6-3.689,33.136,33.136,0,0,1,1.476-3.8q0.874-1.913,1.89-3.9t1.845-4.012a2.409,2.409,0,0,0-.692-0.53,6.581,6.581,0,0,0-1.083-.461A10.956,10.956,0,0,0,118,17.815a6.61,6.61,0,0,0-1.291-.138,9.431,9.431,0,0,0-1.36,1.591,18.033,18.033,0,0,0-1.015,1.683,15.775,15.775,0,0,0-.738,1.591q-0.3.761-.484,1.314a13.345,13.345,0,0,1-.946,2.029q-0.576,1.015-1.222,1.96t-1.268,1.775q-0.622.83-1.084,1.476-1.891,2.583-2.951,3.828a5.359,5.359,0,0,1-1.753,1.522,1.519,1.519,0,0,1-.207-0.277,1.057,1.057,0,0,1-.115-0.553A8.55,8.55,0,0,1,103.772,34q0.207-1.014.53-2.075t0.646-2.029a15.687,15.687,0,0,1,.554-1.476,51.862,51.862,0,0,1,3.758-7.563,36.973,36.973,0,0,1,2.1-3.09,2.817,2.817,0,0,0-.9-0.669,8.881,8.881,0,0,0-1.107-.438,6.294,6.294,0,0,0-1.13-.254,7.912,7.912,0,0,0-.968-0.069,12.188,12.188,0,0,0-2.79,2.928,30.313,30.313,0,0,0-2.375,4.012,42.99,42.99,0,0,0-1.868,4.358A35.9,35.9,0,0,0,99,31.6a12.121,12.121,0,0,0-.3,1.8q-0.069.83-.069,2.121a3.5,3.5,0,0,0,.715,1.485,5.336,5.336,0,0,0,1.245,1.114,6.26,6.26,0,0,0,1.522.72,5.139,5.139,0,0,0,1.545.255,2.24,2.24,0,0,0,.853-0.414,7.238,7.238,0,0,0,1.13-1.012q0.369-.459,1.107-1.425t1.5-1.977q0.762-1.012,1.407-1.747a2.2,2.2,0,0,1,.83-0.736,5.272,5.272,0,0,0-.23,1.66,7.412,7.412,0,0,0,.3,1.891,3.582,3.582,0,0,0,1.176,1.845A12.259,12.259,0,0,0,112.9,37.876Zm24.188-19.508a16.426,16.426,0,0,0-1.475-1.683,18.793,18.793,0,0,0-1.684-1.5,4.379,4.379,0,0,0-1.36-.807,6.954,6.954,0,0,0-2.306,1.02,8.523,8.523,0,0,0-1.937,1.783,9.369,9.369,0,0,0-1.337,2.27,6.424,6.424,0,0,0-.508,2.477,8.69,8.69,0,0,0,.231,1.969q0.229,1,.484,2.038t0.484,2.154a11.121,11.121,0,0,1,.231,2.269,9.174,9.174,0,0,0-3.759.767,10.168,10.168,0,0,0-3,2,9.374,9.374,0,0,0-2.006,2.835,7.952,7.952,0,0,0-.738,3.369,3.955,3.955,0,0,0,.645,1.268,6.436,6.436,0,0,0,2.4,1.96,3.815,3.815,0,0,0,1.337.369,8.63,8.63,0,0,0,5.834-2.717,8.966,8.966,0,0,0,2.1-6.2q0-.55-0.023-0.917c-0.016-.245-0.023-0.489-0.023-0.734a1.13,1.13,0,0,1,.069-0.436,0.708,0.708,0,0,1,.392-0.3,7.077,7.077,0,0,1,.946-0.3q0.622-.16,1.683-0.391a0.819,0.819,0,0,0,.184-0.6,0.967,0.967,0,0,0-.046-0.367h-3.228a1.779,1.779,0,0,1-.046-0.55,18.145,18.145,0,0,1,.968-6.747q0.969-2.295,2.813-2.3a0.932,0.932,0,0,1,.807.438,1.875,1.875,0,0,1,.3,1.084,2.233,2.233,0,0,1-.115.646c-0.077.246-.161,0.492-0.254,0.738s-0.177.469-.253,0.669a1.412,1.412,0,0,0-.116.438,0.677,0.677,0,0,0,.6.692,1.109,1.109,0,0,0,.784-0.507,6.464,6.464,0,0,0,.784-1.268,9.609,9.609,0,0,0,.622-1.706,8.839,8.839,0,0,0,.3-1.822A4.3,4.3,0,0,0,137.091,18.369ZM121.734,39.144a3.7,3.7,0,0,1,.646-1.845,11.516,11.516,0,0,1,1.614-2.052,12.045,12.045,0,0,1,2.075-1.706,5.289,5.289,0,0,1,2.029-.853,7.334,7.334,0,0,1-.438,2.444,10.513,10.513,0,0,1-1.176,2.352,10.151,10.151,0,0,1-1.729,1.983,7.606,7.606,0,0,1-2.1,1.337,1.951,1.951,0,0,1-.923-1.66h0Zm47.477-3.5a63.363,63.363,0,0,1,2.214-6.549q1.314-3.3,2.951-6.48t3.321-5.788a35.261,35.261,0,0,1,3.32-4.427,10.739,10.739,0,0,1,2.929-2.467q-0.232,1.2-.462,2.306t-0.415,1.752a98.411,98.411,0,0,0-2.513,12.175,80.64,80.64,0,0,0-.761,10.792v1.337q0,0.692.046,1.337a2.448,2.448,0,0,0,.969.761,11.076,11.076,0,0,0,1.545.623,13.308,13.308,0,0,0,1.752.438,8.961,8.961,0,0,0,1.545.161q-0.093-1.245-.092-2.4V37q0-3.228.392-7.31t1.153-8.232a79.028,79.028,0,0,1,1.867-7.932,30.856,30.856,0,0,1,2.583-6.41,1.961,1.961,0,0,0-.9-0.807,17.189,17.189,0,0,0-1.845-.945,17.729,17.729,0,0,0-2.121-.784,6.464,6.464,0,0,0-1.73-.323,14.06,14.06,0,0,0-2.421,2.306q-1.36,1.568-2.928,3.666t-3.206,4.635Q174.769,17.4,173.2,20.1t-2.974,5.442q-1.407,2.744-2.468,5.28,0.46-3.366,1.269-7.033t1.706-6.941q0.9-3.274,1.776-5.857a32.618,32.618,0,0,1,1.521-3.874,1.956,1.956,0,0,0-.9-0.807,17.1,17.1,0,0,0-1.845-.945,17.666,17.666,0,0,0-2.121-.784,6.458,6.458,0,0,0-1.729-.323,14.161,14.161,0,0,0-3.252,2.675,40.473,40.473,0,0,0-3.343,4.151q-1.707,2.4-3.482,5.35t-3.62,6.318q-1.615,2.952-2.952,5.511T148.528,32.9q-0.924,2.075-1.43,3.6a8.067,8.067,0,0,0-.507,2.352,1.914,1.914,0,0,0,.853,1.568,10.2,10.2,0,0,0,3.067,1.291,27.042,27.042,0,0,1,1.222-5.811,66.785,66.785,0,0,1,2.375-6.341q1.383-3.2,3.067-6.318t3.366-5.718q1.683-2.6,3.205-4.519a17.71,17.71,0,0,1,2.629-2.79q-0.231,1.153-.438,2.144t-0.392,1.637a98.425,98.425,0,0,0-2.514,12.175,80.634,80.634,0,0,0-.76,10.792v1.337q0,0.692.046,1.337a2.008,2.008,0,0,0,.714.646,7.326,7.326,0,0,0,1.384.669,14.872,14.872,0,0,0,1.66.507,6.449,6.449,0,0,0,1.5.207h0.369a0.417,0.417,0,0,0,.184-0.046A30.291,30.291,0,0,1,169.211,35.639Zm36.8-13.881q-0.576,1.131-1.176,2.237t-1.176,2.121q-0.576,1.015-1.037,1.845a44.074,44.074,0,0,1-4.243,6.2,6.4,6.4,0,0,1-3.09,2.283,1.03,1.03,0,0,1-.646-1.1,11.9,11.9,0,0,1,1.015-4.555,21.442,21.442,0,0,1,2.606-4.578,18.7,18.7,0,0,1,3.551-3.658,8.327,8.327,0,0,1,3.8-1.794,2.439,2.439,0,0,0-.415-0.989,7.456,7.456,0,0,0-.9-1.127,8.125,8.125,0,0,0-1.107-.966,3.657,3.657,0,0,0-1.037-.553,6.311,6.311,0,0,0-3.92,1.644,20.153,20.153,0,0,0-3.759,4.1,24.526,24.526,0,0,0-2.836,5.326,15.192,15.192,0,0,0-1.107,5.464,6.861,6.861,0,0,0,1.061,3.96,3.221,3.221,0,0,0,2.767,1.551,5.934,5.934,0,0,0,2.329-1.079,14.5,14.5,0,0,0,2.513-2.319,28.841,28.841,0,0,0,4.566-7.255,21.652,21.652,0,0,0-1.753,7.194q0,3.413,2.491,3.413a6.252,6.252,0,0,0,1.568-.231,4.791,4.791,0,0,0,1.429-.6,2.061,2.061,0,0,1-.922-1.222,7.036,7.036,0,0,1-.277-2.145,14.767,14.767,0,0,1,.3-2.721,31.648,31.648,0,0,1,.853-3.367q0.554-1.8,1.337-3.758t1.707-3.9a0.737,0.737,0,0,0-.346-0.507,4.846,4.846,0,0,0-.853-0.53,5.83,5.83,0,0,0-1.13-.415,4.419,4.419,0,0,0-1.084-.161Q206.588,20.629,206.012,21.758Zm6.341,16.3a8,8,0,0,0,1.037.784,8.594,8.594,0,0,0,1.153.623,3.534,3.534,0,0,0,.992.3,54.883,54.883,0,0,1,1.453-5.488,19.623,19.623,0,0,1,1.844-4.081,15.88,15.88,0,0,1,2.606-3.228,31.839,31.839,0,0,1,3.689-2.975,7.534,7.534,0,0,0,1.43,2.467,7.361,7.361,0,0,0,2.214,1.776,12.9,12.9,0,0,0,1.268-1.476,3.5,3.5,0,0,0,.622-1.061,6.109,6.109,0,0,1-.6-3.044,12.424,12.424,0,0,1,.83-4.381,1.521,1.521,0,0,0-.83-0.576,3.783,3.783,0,0,0-1.245-.207,1.544,1.544,0,0,0-.969.231,34.273,34.273,0,0,1-3.574,4.52q-1.914,2.03-4.4,4.243a36.5,36.5,0,0,1,1.914-4.842,16.951,16.951,0,0,1,2.19-3.367,4.011,4.011,0,0,0-.784-0.669,9.9,9.9,0,0,0-1.153-.669,10.313,10.313,0,0,0-1.337-.553,7.721,7.721,0,0,0-1.337-.323,6.4,6.4,0,0,0-1.015,1.36,21.309,21.309,0,0,0-1.061,2.237q-0.829,1.983-1.706,4.473t-1.66,4.958q-0.784,2.468-1.361,4.658t-0.807,3.528A2.133,2.133,0,0,0,212.353,38.061ZM236.8,20.536q-0.876,2.124-1.614,4.294t-1.291,4.156q-0.553,1.986-.854,3.671a16.493,16.493,0,0,0-.3,2.793,2.927,2.927,0,0,0,.6,1.685,6.71,6.71,0,0,0,1.545,1.547,9.574,9.574,0,0,0,2.1,1.154,6.178,6.178,0,0,0,2.306.461,3.974,3.974,0,0,0,1.107-.412,13.826,13.826,0,0,0,1.522-.893q0.783-.528,1.453-1.077a4.876,4.876,0,0,0,.945-0.962,1.911,1.911,0,0,0-.323-0.692,8.687,8.687,0,0,1-2.213,1.291,10.65,10.65,0,0,1-2.629.692q-1.522-.231-1.522-2.265a17.322,17.322,0,0,1,.346-3.236,36.836,36.836,0,0,1,.968-3.838q0.623-2.034,1.522-4.23t2.052-4.416A15.21,15.21,0,0,0,248,19.383a1.913,1.913,0,0,0-.138-0.715,1.688,1.688,0,0,0-.369-0.576,13.519,13.519,0,0,1-1.914.138h-1.868q1.154-1.923,2.145-3.412t2.375-3.229a2.41,2.41,0,0,0-.83-0.553,14.388,14.388,0,0,0-1.338-.53,14.143,14.143,0,0,0-1.452-.415,5.581,5.581,0,0,0-1.176-.161,5.364,5.364,0,0,0-1.038,1,21.185,21.185,0,0,0-1.429,1.892q-0.762,1.118-1.568,2.462T237.9,18h-2.029a15.139,15.139,0,0,1-2.306-.184,7.854,7.854,0,0,0,.184,1.545,2.969,2.969,0,0,0,.415,1.176H236.8Zm11.39,16.325a5.092,5.092,0,0,0,1.038,1.222,4.44,4.44,0,0,0,1.13.715,2.54,2.54,0,0,0,.738.231c0.153,0,.238-0.115.253-0.346s0.023-.623.023-1.176a9.857,9.857,0,0,1,.462-2.375q0.414-1.36.922-2.652,0.6-1.522,1.084-2.905T254.9,26.9a23.965,23.965,0,0,1,1.292-2.49,16.032,16.032,0,0,1,1.775-2.4,7.01,7.01,0,0,0-2.213-2.1,8.126,8.126,0,0,0-2.076-.945,4.773,4.773,0,0,0-1.821,1.568,13.873,13.873,0,0,0-1.292,2.191,17.839,17.839,0,0,0-.853,2.144q-0.322,1.015-.415,1.476-0.46,2.075-.761,3.551t-0.484,2.513q-0.184,1.038-.254,1.66a9.725,9.725,0,0,0-.069,1.038A3.241,3.241,0,0,0,248.185,36.862Zm8.763-21.006a1.81,1.81,0,0,0,.968.484,10.362,10.362,0,0,1,.83-1.245q0.645-.876,1.43-1.868t1.614-1.891q0.829-.9,1.337-1.407a6.3,6.3,0,0,0-1.06-1.084,11.232,11.232,0,0,0-1.522-1.061A10.658,10.658,0,0,0,258.908,7a4.067,4.067,0,0,0-1.361-.3q-0.276.738-.553,1.637t-0.461,1.729q-0.186.83-.3,1.545a7.5,7.5,0,0,0-.115,1.13,2.527,2.527,0,0,0,.161.83,1.805,1.805,0,0,0,.392.692,3.792,3.792,0,0,0-.138.83A1.089,1.089,0,0,0,256.948,15.855Zm7.263,2.467a48.1,48.1,0,0,0-3.205,6.364q-0.786,1.8-1.43,3.6t-1.084,3.436q-0.438,1.637-.692,2.975a12.329,12.329,0,0,0-.253,2.214,9.7,9.7,0,0,0,.692,2.052,3.392,3.392,0,0,0,1.429,1.545,5.213,5.213,0,0,0,1.315-1.314q0.761-.992,1.775-2.421,1.8-2.49,3.528-4.52a55.85,55.85,0,0,1,3.9-4.1,11.842,11.842,0,0,1,2.49-1.983,9.31,9.31,0,0,1,1.245-.646q-0.785,1.845-1.291,3.159t-0.784,2.26a11.278,11.278,0,0,0-.369,1.637,9.362,9.362,0,0,0,.092,3.159,3.81,3.81,0,0,0,.669,1.545,3.392,3.392,0,0,0,1.338,1.038,5.271,5.271,0,0,0,2.19.392,2.937,2.937,0,0,0,.946-0.184,9.251,9.251,0,0,0,1.083-.461,11.89,11.89,0,0,0,1.061-.6,7.15,7.15,0,0,0,.876-0.646,1.526,1.526,0,0,0-.115-0.53,0.689,0.689,0,0,0-.3-0.392,2.465,2.465,0,0,0-.876.231,2.749,2.749,0,0,1-1.061.23,1.105,1.105,0,0,1-.853-0.323,2.377,2.377,0,0,1-.3-1.476,11.524,11.524,0,0,1,.508-3.182A25.681,25.681,0,0,1,278,27.938q0.76-1.683,1.568-3.136a18.2,18.2,0,0,1,1.452-2.283,3.816,3.816,0,0,1,.992-0.9,0.553,0.553,0,0,0,.346-0.254,7.072,7.072,0,0,0-1.268-1.683,2.727,2.727,0,0,0-2.006-.807,5.029,5.029,0,0,0-2.445.761,18.77,18.77,0,0,0-2.651,1.845,32.307,32.307,0,0,0-2.514,2.306q-1.2,1.223-2.075,2.145-0.415.415-1.153,1.268t-1.591,1.891q-0.853,1.038-1.752,2.075t-1.638,1.822a8.669,8.669,0,0,1,.992-2.7q0.852-1.636,1.914-3.459t2.121-3.574a22.3,22.3,0,0,0,1.568-3,8.54,8.54,0,0,0-1.568-2.79,4.888,4.888,0,0,0-2.26-1.637A10.837,10.837,0,0,0,264.211,18.322Zm34.38,0.046a16.439,16.439,0,0,0-1.476-1.683,18.784,18.784,0,0,0-1.683-1.5,4.381,4.381,0,0,0-1.361-.807,6.963,6.963,0,0,0-2.306,1.02,8.539,8.539,0,0,0-1.936,1.783,9.341,9.341,0,0,0-1.338,2.27,6.423,6.423,0,0,0-.507,2.477,8.688,8.688,0,0,0,.23,1.969q0.231,1,.485,2.038t0.484,2.154a11.191,11.191,0,0,1,.23,2.269,9.169,9.169,0,0,0-3.758.767,10.186,10.186,0,0,0-3,2,9.392,9.392,0,0,0-2.006,2.835,7.967,7.967,0,0,0-.738,3.369,3.958,3.958,0,0,0,.646,1.268,6.444,6.444,0,0,0,2.4,1.96,3.821,3.821,0,0,0,1.337.369,8.626,8.626,0,0,0,5.834-2.717,8.961,8.961,0,0,0,2.1-6.2q0-.55-0.023-0.917c-0.016-.245-0.023-0.489-0.023-0.734a1.13,1.13,0,0,1,.069-0.436,0.7,0.7,0,0,1,.392-0.3,7.054,7.054,0,0,1,.945-0.3q0.623-.16,1.683-0.391a0.815,0.815,0,0,0,.185-0.6,0.967,0.967,0,0,0-.046-0.367h-3.228a1.764,1.764,0,0,1-.047-0.55,18.121,18.121,0,0,1,.969-6.747q0.969-2.295,2.813-2.3a0.932,0.932,0,0,1,.807.438,1.875,1.875,0,0,1,.3,1.084,2.233,2.233,0,0,1-.115.646c-0.078.246-.162,0.492-0.254,0.738s-0.177.469-.254,0.669a1.4,1.4,0,0,0-.115.438,0.676,0.676,0,0,0,.6.692,1.107,1.107,0,0,0,.784-0.507,6.417,6.417,0,0,0,.784-1.268,9.608,9.608,0,0,0,.623-1.706,8.839,8.839,0,0,0,.3-1.822A4.3,4.3,0,0,0,298.591,18.369ZM283.234,39.144a3.7,3.7,0,0,1,.645-1.845,11.569,11.569,0,0,1,1.615-2.052,12.007,12.007,0,0,1,2.075-1.706,5.289,5.289,0,0,1,2.029-.853,7.334,7.334,0,0,1-.438,2.444,10.6,10.6,0,0,1-1.176,2.352,10.156,10.156,0,0,1-1.73,1.983,7.576,7.576,0,0,1-2.1,1.337,1.952,1.952,0,0,1-.922-1.66h0Z"/>
</svg>
